<svg xmlns="http://www.w3.org/2000/svg" xmlns:xlink="http://www.w3.org/1999/xlink" id="Layer_1" width="1400" height="980" x="0" y="0" enable-background="new 0 0 1400 980" version="1.1" viewBox="0 0 1400 980" xml:space="preserve"><rect width="1400" height="980" fill="#0EBEBE"/><g><path d="M1358,140.7H42c-5.5,0-10-4.5-10-10v-98c0-5.5,4.5-10,10-10h1316c5.5,0,10,4.5,10,10v98 C1368,136.2,1363.5,140.7,1358,140.7z" opacity=".3"/><path fill="#D1D3D4" d="M1358,135H42c-5.5,0-10-4.5-10-10V27c0-5.5,4.5-10,10-10h1316c5.5,0,10,4.5,10,10v98 C1368,130.5,1363.5,135,1358,135z"/><path fill="#A7A9AC" d="M1218.3,112.6H231.4c-5.4,0-9.8-4.4-9.8-9.8V56.5c0-5.4,4.4-9.8,9.8-9.8h986.9c5.4,0,9.8,4.4,9.8,9.8v46.3 C1228.1,108.2,1223.7,112.6,1218.3,112.6z"/><path fill="#FFF" d="M1218.3,108.9H231.4c-5.4,0-9.8-4.4-9.8-9.8V52.9c0-5.4,4.4-9.8,9.8-9.8h986.9c5.4,0,9.8,4.4,9.8,9.8v46.3 C1228.1,104.5,1223.7,108.9,1218.3,108.9z"/><g><g><line x1="1171.3" x2="1208.1" y1="76" y2="76" fill="none" stroke="#A7A9AC" stroke-miterlimit="10" stroke-width="3"/><g><polygon fill="#A7A9AC" points="1198.1 88.3 1196.1 86.1 1206.9 76 1196.1 65.9 1198.1 63.7 1211.3 76"/></g></g></g><circle cx="57.5" cy="76" r="10.7" fill="#F14246"/><circle cx="84.8" cy="76" r="10.7" fill="#FBBF3C"/><circle cx="112.2" cy="76" r="10.7" fill="#5ED73C"/><path fill="#A7A9AC" d="M1301.1,112.6h-45.8c-5.5,0-10-4.5-10-10V56.8c0-5.5,4.5-10,10-10h45.8c5.5,0,10,4.5,10,10v45.8 C1311.1,108.1,1306.6,112.6,1301.1,112.6z"/><path fill="#FFF" d="M1301.1,108.9h-45.8c-5.5,0-10-4.5-10-10V53.1c0-5.5,4.5-10,10-10h45.8c5.5,0,10,4.5,10,10v45.8 C1311.1,104.4,1306.6,108.9,1301.1,108.9z"/><polygon fill="#A7A9AC" points="1278.2 59.1 1282.4 72 1296 72 1285 80 1289.2 92.9 1278.2 84.9 1267.2 92.9 1271.4 80 1260.4 72 1274 72"/><path fill="#A7A9AC" d="M199.1,112.6h-45.8c-5.5,0-10-4.5-10-10V56.8c0-5.5,4.5-10,10-10h45.8c5.5,0,10,4.5,10,10v45.8 C209.1,108.1,204.7,112.6,199.1,112.6z"/><path fill="#FFF" d="M199.1,108.9h-45.8c-5.5,0-10-4.5-10-10V53.1c0-5.5,4.5-10,10-10h45.8c5.5,0,10,4.5,10,10v45.8 C209.1,104.4,204.7,108.9,199.1,108.9z"/><polygon fill="#A7A9AC" points="192.7 73.3 176.2 56.8 159.8 73.3 164.6 73.3 164.6 93.6 172.2 93.6 172.2 81.9 180.3 81.9 180.3 93.6 187.9 93.6 187.9 73.3"/><g><path fill="#58595B" d="M252.3,75.5v11.2h-1.7v-11c0-2.1-1.1-3.8-3.6-3.8c-2.5,0-4.2,1.6-4.7,3.1v11.7h-1.7V64h1.7v8.4h0.1 c0.4-0.5,1.8-2.2,4.8-2.2C250.3,70.3,252.3,72.3,252.3,75.5z"/><path fill="#58595B" d="M258,82.6V72h-2.5v-1.1l2.5-0.4l0.5-4.3h1.3v4.3h4.5V72h-4.5v10.4c0,2,1,2.8,2.5,2.8 c1.5,0,2.2-0.3,2.5-0.5l0.5,1.5c-0.6,0.3-1.6,0.7-3.3,0.7C259.3,86.8,258,85.4,258,82.6z"/><path fill="#58595B" d="M269.2,82.6V72h-2.5v-1.1l2.5-0.4l0.5-4.3h1.3v4.3h4.5V72h-4.5v10.4c0,2,1,2.8,2.5,2.8 c1.5,0,2.2-0.3,2.5-0.5l0.5,1.5c-0.6,0.3-1.6,0.7-3.3,0.7C270.5,86.8,269.2,85.4,269.2,82.6z"/><path fill="#58595B" d="M284.2,86.7c-0.8,0-1.8-0.1-2.5-0.2v6h-1.7V70.6h1.3l0.4,1.7h0.1c0.8-1.1,2.2-2,4.3-2c3.7,0,6,2.4,6,7.7 C292,83.5,289,86.7,284.2,86.7z M284.2,85c4.1,0,6-2.4,6-6.8c0-4.9-2.2-6.4-4.5-6.4c-2.2,0-3.5,1.4-4.1,2.5v10.3 C282.3,84.9,283.4,85,284.2,85z"/><path fill="#58595B" d="M295.8,74.6c0-2.2,1.9-4.3,5.4-4.3c1.6,0,3.4,0.6,4.4,1.6l-1.1,1.3c-0.8-0.8-2.2-1.3-3.3-1.3 c-2.5,0-3.6,1.3-3.6,2.7c0,4,8.3,2.3,8.3,7.8c0,2.2-1.9,4.5-5.6,4.5c-2.5,0-4.4-0.9-5.5-1.9l1.1-1.4c1,1,2.6,1.7,4.4,1.7 c2.5,0,3.7-1.3,3.7-2.9C304,78.4,295.8,80.1,295.8,74.6z"/><path fill="#58595B" d="M310.7,71.1c0.9,0,1.6,0.7,1.6,1.6c0,0.8-0.7,1.5-1.6,1.5c-0.8,0-1.5-0.7-1.5-1.5 C309.2,71.8,309.9,71.1,310.7,71.1z M310.7,83.2c0.9,0,1.6,0.7,1.6,1.6c0,0.8-0.7,1.5-1.6,1.5c-0.8,0-1.5-0.7-1.5-1.5 C309.2,83.9,309.9,83.2,310.7,83.2z"/><path fill="#58595B" d="M323.5,64.8l-8,25.6h-1.7l8-25.6H323.5z"/><path fill="#58595B" d="M333.2,64.8l-8,25.6h-1.7l8-25.6H333.2z"/></g></g><g><path d="M1358,293.7H42c-5.5,0-10-4.5-10-10v-98c0-5.5,4.5-10,10-10h1316c5.5,0,10,4.5,10,10v98 C1368,289.2,1363.5,293.7,1358,293.7z" opacity=".3"/><path fill="#D1D3D4" d="M1358,288H42c-5.5,0-10-4.5-10-10v-98c0-5.5,4.5-10,10-10h1316c5.5,0,10,4.5,10,10v98 C1368,283.5,1363.5,288,1358,288z"/><path fill="#A7A9AC" d="M1218.3,265.6H231.4c-5.4,0-9.8-4.4-9.8-9.8v-46.3c0-5.4,4.4-9.8,9.8-9.8h986.9c5.4,0,9.8,4.4,9.8,9.8v46.3 C1228.1,261.2,1223.7,265.6,1218.3,265.6z"/><path fill="#FFF" d="M1218.3,261.9H231.4c-5.4,0-9.8-4.4-9.8-9.8v-46.3c0-5.4,4.4-9.8,9.8-9.8h986.9c5.4,0,9.8,4.4,9.8,9.8v46.3 C1228.1,257.5,1223.7,261.9,1218.3,261.9z"/><g><path fill="#58595B" d="M252.3,228.5v11.2h-1.7v-11c0-2.1-1.1-3.8-3.6-3.8c-2.5,0-4.2,1.6-4.7,3.1v11.7h-1.7V217h1.7v8.4h0.1 c0.4-0.5,1.8-2.2,4.8-2.2C250.3,223.3,252.3,225.3,252.3,228.5z"/><path fill="#58595B" d="M258,235.6V225h-2.5v-1.1l2.5-0.4l0.5-4.3h1.3v4.3h4.5v1.5h-4.5v10.4c0,2,1,2.8,2.5,2.8 c1.5,0,2.2-0.3,2.5-0.5l0.5,1.5c-0.6,0.3-1.6,0.7-3.3,0.7C259.3,239.8,258,238.4,258,235.6z"/><path fill="#58595B" d="M269.2,235.6V225h-2.5v-1.1l2.5-0.4l0.5-4.3h1.3v4.3h4.5v1.5h-4.5v10.4c0,2,1,2.8,2.5,2.8 c1.5,0,2.2-0.3,2.5-0.5l0.5,1.5c-0.6,0.3-1.6,0.7-3.3,0.7C270.5,239.8,269.2,238.4,269.2,235.6z"/><path fill="#58595B" d="M284.2,239.7c-0.8,0-1.8-0.1-2.5-0.2v6h-1.7v-21.9h1.3l0.4,1.7h0.1c0.8-1.1,2.2-2,4.3-2c3.7,0,6,2.4,6,7.7 C292,236.5,289,239.7,284.2,239.7z M284.2,238c4.1,0,6-2.4,6-6.8c0-4.9-2.2-6.4-4.5-6.4c-2.2,0-3.5,1.4-4.1,2.5v10.3 C282.3,237.9,283.4,238,284.2,238z"/><path fill="#58595B" d="M295.8,227.6c0-2.2,1.9-4.3,5.4-4.3c1.6,0,3.4,0.6,4.4,1.6l-1.1,1.3c-0.8-0.8-2.2-1.3-3.3-1.3 c-2.5,0-3.6,1.3-3.6,2.7c0,4,8.3,2.3,8.3,7.8c0,2.2-1.9,4.5-5.6,4.5c-2.5,0-4.4-0.9-5.5-1.9l1.1-1.4c1,1,2.6,1.7,4.4,1.7 c2.5,0,3.7-1.3,3.7-2.9C304,231.4,295.8,233.1,295.8,227.6z"/><path fill="#58595B" d="M310.7,224.1c0.9,0,1.6,0.7,1.6,1.6c0,0.8-0.7,1.5-1.6,1.5c-0.8,0-1.5-0.7-1.5-1.5 C309.2,224.8,309.9,224.1,310.7,224.1z M310.7,236.2c0.9,0,1.6,0.7,1.6,1.6c0,0.8-0.7,1.5-1.6,1.5c-0.8,0-1.5-0.7-1.5-1.5 C309.2,236.9,309.9,236.2,310.7,236.2z"/><path fill="#58595B" d="M323.5,217.8l-8,25.6h-1.7l8-25.6H323.5z"/><path fill="#58595B" d="M333.2,217.8l-8,25.6h-1.7l8-25.6H333.2z"/></g><circle cx="163.6" cy="232.7" r="32.9" fill="#A7A9AC"/><circle cx="86.6" cy="232.7" r="32.9" fill="#A7A9AC"/><circle cx="163.6" cy="229" r="32.9" fill="#FFF"/><circle cx="1278.7" cy="232.7" r="32.9" fill="#A7A9AC"/><circle cx="1278.7" cy="229" r="32.9" fill="#FFF"/><circle cx="86.6" cy="229" r="32.9" fill="#FFF"/><g><g><line x1="143.6" x2="180.4" y1="229" y2="229" fill="none" stroke="#A7A9AC" stroke-miterlimit="10" stroke-width="3"/><g><polygon fill="#A7A9AC" points="170.4 241.3 168.4 239.1 179.2 229 168.4 218.9 170.4 216.7 183.6 229"/></g></g></g><g><g><line x1="106.6" x2="69.9" y1="229" y2="229" fill="none" stroke="#A7A9AC" stroke-miterlimit="10" stroke-width="3"/><g><polygon fill="#A7A9AC" points="79.8 216.7 81.9 218.9 71 229 81.9 239.1 79.8 241.3 66.6 229"/></g></g></g><g><g><path fill="none" stroke="#A7A9AC" stroke-miterlimit="10" stroke-width="2" d="M1293.7,229.6c0,4.3-1.7,8.1-4.5,10.9 c-2.8,2.8-6.7,4.5-10.9,4.5c-4.3,0-8.1-1.7-10.9-4.5s-4.5-6.7-4.5-10.9s1.7-8.1,4.5-10.9s6.7-4.5,10.9-4.5c3.5,0,6.7,1.2,9.3,3.1"/><g><polygon fill="#A7A9AC" points="1277.7 221 1277.3 219.1 1286.7 217.2 1284.2 208 1286.1 207.5 1289.1 218.7"/></g></g></g><polygon fill="#69A1FF" points="1195.3 246.6 1175.5 218.7 1215.1 218.7"/></g><g><path d="M1358,752.7H42c-5.5,0-10-4.5-10-10v-98c0-5.5,4.5-10,10-10h1316c5.5,0,10,4.5,10,10v98 C1368,748.2,1363.5,752.7,1358,752.7z" opacity=".3"/><path fill="#D1D3D4" d="M1358,747H42c-5.5,0-10-4.5-10-10v-98c0-5.5,4.5-10,10-10h1316c5.5,0,10,4.5,10,10v98 C1368,742.5,1363.5,747,1358,747z"/><path fill="#A7A9AC" d="M1282.5,724.6H295.6c-5.4,0-9.8-4.4-9.8-9.8v-46.3c0-5.4,4.4-9.8,9.8-9.8h986.9c5.4,0,9.8,4.4,9.8,9.8v46.3 C1292.3,720.2,1287.9,724.6,1282.5,724.6z"/><path fill="#FFF" d="M1282.5,720.9H295.6c-5.4,0-9.8-4.4-9.8-9.8v-46.3c0-5.4,4.4-9.8,9.8-9.8h986.9c5.4,0,9.8,4.4,9.8,9.8v46.3 C1292.3,716.5,1287.9,720.9,1282.5,720.9z"/><g><path fill="#58595B" d="M316.5,687.5v11.2h-1.7v-11c0-2.1-1.1-3.8-3.6-3.8c-2.5,0-4.2,1.6-4.7,3.1v11.7h-1.7V676h1.7v8.4h0.1 c0.4-0.5,1.8-2.2,4.8-2.2C314.5,682.3,316.5,684.3,316.5,687.5z"/><path fill="#58595B" d="M322.2,694.6V684h-2.5v-1.1l2.5-0.4l0.5-4.3h1.3v4.3h4.5v1.5h-4.5v10.4c0,2,1,2.8,2.5,2.8 c1.5,0,2.2-0.3,2.5-0.5l0.5,1.5c-0.6,0.3-1.6,0.7-3.3,0.7C323.5,698.8,322.2,697.4,322.2,694.6z"/><path fill="#58595B" d="M333.4,694.6V684h-2.5v-1.1l2.5-0.4l0.5-4.3h1.3v4.3h4.5v1.5h-4.5v10.4c0,2,1,2.8,2.5,2.8 c1.5,0,2.2-0.3,2.5-0.5l0.5,1.5c-0.6,0.3-1.6,0.7-3.3,0.7C334.7,698.8,333.4,697.4,333.4,694.6z"/><path fill="#58595B" d="M348.3,698.7c-0.8,0-1.8-0.1-2.5-0.2v6h-1.7v-21.9h1.3l0.4,1.7h0.1c0.8-1.1,2.2-2,4.3-2c3.7,0,6,2.4,6,7.7 C356.1,695.5,353.2,698.7,348.3,698.7z M348.3,697c4.1,0,6-2.4,6-6.8c0-4.9-2.2-6.4-4.5-6.4c-2.2,0-3.5,1.4-4.1,2.5v10.3 C346.5,696.9,347.6,697,348.3,697z"/><path fill="#58595B" d="M359.9,686.6c0-2.2,1.9-4.3,5.4-4.3c1.6,0,3.4,0.6,4.4,1.6l-1.1,1.3c-0.8-0.8-2.2-1.3-3.3-1.3 c-2.5,0-3.6,1.3-3.6,2.7c0,4,8.3,2.3,8.3,7.8c0,2.2-1.9,4.5-5.6,4.5c-2.5,0-4.4-0.9-5.5-1.9l1.1-1.4c1,1,2.6,1.7,4.4,1.7 c2.5,0,3.7-1.3,3.7-2.9C368.2,690.4,359.9,692.1,359.9,686.6z"/><path fill="#58595B" d="M374.9,683.1c0.9,0,1.6,0.7,1.6,1.6c0,0.8-0.7,1.5-1.6,1.5c-0.8,0-1.5-0.7-1.5-1.5 C373.4,683.8,374,683.1,374.9,683.1z M374.9,695.2c0.9,0,1.6,0.7,1.6,1.6c0,0.8-0.7,1.5-1.6,1.5c-0.8,0-1.5-0.7-1.5-1.5 C373.4,695.9,374,695.2,374.9,695.2z"/><path fill="#58595B" d="M387.7,676.8l-8,25.6H378l8-25.6H387.7z"/><path fill="#58595B" d="M397.4,676.8l-8,25.6h-1.7l8-25.6H397.4z"/></g><g><g><line x1="143.6" x2="178.2" y1="688" y2="688" fill="none" stroke="#A7A9AC" stroke-miterlimit="10" stroke-width="5"/><g><polygon fill="#A7A9AC" points="161.6 708.4 158.2 704.8 176.3 688 158.2 671.2 161.6 667.6 183.6 688"/></g></g></g><g><g><line x1="106.6" x2="72" y1="688" y2="688" fill="none" stroke="#808285" stroke-miterlimit="10" stroke-width="5"/><g><polygon fill="#808285" points="88.6 667.5 92 671.2 74 688 92 704.8 88.6 708.4 66.6 688"/></g></g></g><g><g><path fill="none" stroke="#A7A9AC" stroke-miterlimit="10" stroke-width="5" d="M259.9,688.6c0,4.3-1.7,8.1-4.5,10.9 c-2.8,2.8-6.7,4.5-10.9,4.5c-4.3,0-8.1-1.7-10.9-4.5c-2.8-2.8-4.5-6.7-4.5-10.9s1.7-8.1,4.5-10.9c2.8-2.8,6.7-4.5,10.9-4.5 c0.4,0,0.8,0,1.1,0"/><g><polygon fill="#A7A9AC" points="240.6 680 255.4 677.7 246 666"/></g></g></g><polygon fill="#69A1FF" points="1259.5 705.6 1239.7 677.7 1279.3 677.7"/><g><line x1="1311.9" x2="1350.3" y1="668.8" y2="707.2" fill="none" stroke="#A7A9AC" stroke-miterlimit="10" stroke-width="5"/><line x1="1350.3" x2="1311.9" y1="668.8" y2="707.2" fill="none" stroke="#A7A9AC" stroke-miterlimit="10" stroke-width="5"/></g></g><g><path d="M1358,446.7H42c-5.5,0-10-4.5-10-10v-98c0-5.5,4.5-10,10-10h1316c5.5,0,10,4.5,10,10v98 C1368,442.2,1363.5,446.7,1358,446.7z" opacity=".3"/><path fill="#D1D3D4" d="M1358,441H42c-5.5,0-10-4.5-10-10v-98c0-5.5,4.5-10,10-10h1316c5.5,0,10,4.5,10,10v98 C1368,436.5,1363.5,441,1358,441z"/><path fill="#A7A9AC" d="M1158.2,418.6H231.1c-5.2,0-9.5-4.2-9.5-9.5v-46.8c0-5.2,4.2-9.5,9.5-9.5h927.1c5.2,0,9.5,4.2,9.5,9.5v46.8 C1167.7,414.3,1163.4,418.6,1158.2,418.6z"/><path fill="#FFF" d="M1158.2,414.9H231.1c-5.2,0-9.5-4.2-9.5-9.5v-46.8c0-5.2,4.2-9.5,9.5-9.5h927.1c5.2,0,9.5,4.2,9.5,9.5v46.8 C1167.7,410.6,1163.4,414.9,1158.2,414.9z"/><g><path fill="#58595B" d="M293.7,381.5v11.2h-1.7v-11c0-2.1-1.1-3.8-3.6-3.8c-2.5,0-4.2,1.6-4.7,3.1v11.7h-1.7V370h1.7v8.4h0.1 c0.4-0.5,1.8-2.2,4.8-2.2C291.6,376.3,293.7,378.3,293.7,381.5z"/><path fill="#58595B" d="M299.3,388.6V378h-2.5v-1.1l2.5-0.4l0.5-4.3h1.3v4.3h4.5v1.5h-4.5v10.4c0,2,1,2.8,2.5,2.8 c1.5,0,2.2-0.3,2.5-0.5l0.5,1.5c-0.6,0.3-1.6,0.7-3.3,0.7C300.6,392.8,299.3,391.4,299.3,388.6z"/><path fill="#58595B" d="M310.5,388.6V378h-2.5v-1.1l2.5-0.4l0.5-4.3h1.3v4.3h4.5v1.5h-4.5v10.4c0,2,1,2.8,2.5,2.8 c1.5,0,2.2-0.3,2.5-0.5l0.5,1.5c-0.6,0.3-1.6,0.7-3.3,0.7C311.9,392.8,310.5,391.4,310.5,388.6z"/><path fill="#58595B" d="M325.5,392.7c-0.8,0-1.8-0.1-2.5-0.2v6h-1.7v-21.9h1.3l0.4,1.7h0.1c0.8-1.1,2.2-2,4.3-2c3.7,0,6,2.4,6,7.7 C333.3,389.5,330.3,392.7,325.5,392.7z M325.5,391c4.1,0,6-2.4,6-6.8c0-4.9-2.2-6.4-4.5-6.4c-2.2,0-3.5,1.4-4.1,2.5v10.3 C323.6,390.9,324.8,391,325.5,391z"/><path fill="#58595B" d="M337.1,380.6c0-2.2,1.9-4.3,5.4-4.3c1.6,0,3.4,0.6,4.4,1.6l-1.1,1.3c-0.8-0.8-2.2-1.3-3.3-1.3 c-2.5,0-3.6,1.3-3.6,2.7c0,4,8.3,2.3,8.3,7.8c0,2.2-1.9,4.5-5.6,4.5c-2.5,0-4.4-0.9-5.5-1.9l1.1-1.4c1,1,2.6,1.7,4.4,1.7 c2.5,0,3.7-1.3,3.7-2.9C345.4,384.4,337.1,386.1,337.1,380.6z"/><path fill="#58595B" d="M352,377.1c0.9,0,1.6,0.7,1.6,1.6c0,0.8-0.7,1.5-1.6,1.5c-0.8,0-1.5-0.7-1.5-1.5 C350.5,377.8,351.2,377.1,352,377.1z M352,389.2c0.9,0,1.6,0.7,1.6,1.6c0,0.8-0.7,1.5-1.6,1.5c-0.8,0-1.5-0.7-1.5-1.5 C350.5,389.9,351.2,389.2,352,389.2z"/><path fill="#58595B" d="M364.8,370.8l-8,25.6h-1.7l8-25.6H364.8z"/><path fill="#58595B" d="M374.5,370.8l-8,25.6h-1.7l8-25.6H374.5z"/></g><path fill="#A7A9AC" d="M1331,418.6h-130.5c-5.5,0-10-4.5-10-10v-45.8c0-5.5,4.5-10,10-10H1331c5.5,0,10,4.5,10,10v45.8 C1341,414.1,1336.5,418.6,1331,418.6z"/><path fill="#43EF78" d="M1331,414.9h-130.5c-5.5,0-10-4.5-10-10v-45.8c0-5.5,4.5-10,10-10H1331c5.5,0,10,4.5,10,10v45.8 C1341,410.4,1336.5,414.9,1331,414.9z"/><g><path fill="#FFF" d="M1238.5,386.1c0-4.4-8.6-3.3-8.6-9c0-2.7,2.2-4.7,5.3-4.7c1.7,0,3.3,0.5,4.4,1.3l-0.9,1.3 c-1-0.8-2.1-1.1-3.5-1.1c-2.3,0-3.7,1.3-3.7,3.1c0,4.5,8.6,3.5,8.6,9c0,2.7-2.1,4.9-5.8,4.9c-2.5,0-4.3-0.8-5.4-1.8l0.9-1.2 c1,0.8,2.5,1.6,4.6,1.6C1237.1,389.4,1238.5,388,1238.5,386.1z"/><path fill="#FFF" d="M1245,371.5c0.7,0,1.3,0.5,1.3,1.3c0,0.7-0.5,1.2-1.3,1.2c-0.7,0-1.2-0.5-1.2-1.2 C1243.8,372,1244.4,371.5,1245,371.5z M1244.4,376.8h1.5v13.8h-1.5V376.8z"/><path fill="#FFF" d="M1260.5,390.9c0,3.6-2.1,5.3-5.5,5.3c-2.4,0-3.7-0.9-4.2-1.3l0.9-1.3c0.7,0.6,1.7,1.2,3.7,1.2 c2.7,0,3.7-1.4,3.7-4v-1.4h-0.1c-0.4,0.4-1.6,1.2-3.5,1.2c-2.8,0-5.2-1.9-5.2-6.5c0-4.5,2.1-7.5,6.7-7.5c1.6,0,2.9,0.3,3.6,0.7 V390.9z M1256.6,378.1c-2.9,0-4.8,1.9-4.8,5.8c0,4.3,2.1,5.4,4.1,5.4c1.2,0,2.5-0.6,3.2-1.5v-9.2 C1258.4,378.3,1257.5,378.1,1256.6,378.1z"/><path fill="#FFF" d="M1275,390.6h-1.5v-9.1c0-2.3-1.1-3.5-3.2-3.5c-1.9,0-3.3,1.3-3.8,2.7v10h-1.5v-13.8h1.1l0.3,1.5h0.1 c0.3-0.4,1.6-1.8,4-1.8c2.8,0,4.4,1.5,4.5,4.5V390.6z"/><path fill="#FFF" d="M1288.2,371.5c0.7,0,1.3,0.5,1.3,1.3c0,0.7-0.5,1.2-1.3,1.2c-0.7,0-1.2-0.5-1.2-1.2 C1286.9,372,1287.5,371.5,1288.2,371.5z M1287.6,376.8h1.5v13.8h-1.5V376.8z"/><path fill="#FFF" d="M1304.1,390.6h-1.5v-9.1c0-2.3-1.1-3.5-3.2-3.5c-1.9,0-3.3,1.3-3.8,2.7v10h-1.5v-13.8h1.1l0.3,1.5h0.1 c0.3-0.4,1.6-1.8,4-1.8c2.8,0,4.4,1.5,4.5,4.5V390.6z"/></g><path fill="#A7A9AC" d="M188.1,418.6H57.6c-5.5,0-10-4.5-10-10v-45.8c0-5.5,4.5-10,10-10h130.5c5.5,0,10,4.5,10,10v45.8 C198.1,414.1,193.6,418.6,188.1,418.6z"/><path fill="#FFF" d="M188.1,414.9H57.6c-5.5,0-10-4.5-10-10v-45.8c0-5.5,4.5-10,10-10h130.5c5.5,0,10,4.5,10,10v45.8 C198.1,410.4,193.6,414.9,188.1,414.9z"/><g><line x1="1113.3" x2="1151.7" y1="362.8" y2="401.2" fill="none" stroke="#A7A9AC" stroke-miterlimit="10" stroke-width="3"/><line x1="1151.7" x2="1113.3" y1="362.8" y2="401.2" fill="none" stroke="#A7A9AC" stroke-miterlimit="10" stroke-width="3"/></g><g><circle cx="101.2" cy="382" r="15.5" fill="none" stroke="#A7A9AC" stroke-miterlimit="10" stroke-width="2"/><circle cx="144.5" cy="382" r="15.5" fill="none" stroke="#A7A9AC" stroke-miterlimit="10" stroke-width="2"/><line x1="128.9" x2="116.7" y1="382" y2="382" fill="none" stroke="#A7A9AC" stroke-miterlimit="10" stroke-width="2"/></g><g><path fill="#A7A9AC" d="M258.2,399.6h-17.3c-1.6,0-2.9-1.3-2.9-2.9v-17.3c0-1.6,1.3-2.9,2.9-2.9h17.3c1.6,0,2.9,1.3,2.9,2.9v17.3 C261.2,398.3,259.9,399.6,258.2,399.6z"/><path fill="none" stroke="#A7A9AC" stroke-miterlimit="10" stroke-width="2" d="M249.6,388.5L249.6,388.5c-4.4,0-7.9-3.6-7.9-7.9 v-8.3c0-4.4,3.6-7.9,7.9-7.9h0c4.4,0,7.9,3.6,7.9,7.9v8.3C257.5,384.9,253.9,388.5,249.6,388.5z"/></g></g><g><path d="M1358,599.7H42c-5.5,0-10-4.5-10-10v-98c0-5.5,4.5-10,10-10h1316c5.5,0,10,4.5,10,10v98 C1368,595.2,1363.5,599.7,1358,599.7z" opacity=".3"/><path fill="#D1D3D4" d="M1358,594H42c-5.5,0-10-4.5-10-10v-98c0-5.5,4.5-10,10-10h1316c5.5,0,10,4.5,10,10v98 C1368,589.5,1363.5,594,1358,594z"/><path fill="#A7A9AC" d="M1325.7,571.6H231.9c-5.7,0-10.3-4.6-10.3-10.3V516c0-5.7,4.6-10.3,10.3-10.3h1093.8 c5.7,0,10.3,4.6,10.3,10.3v45.2C1336,567,1331.4,571.6,1325.7,571.6z"/><path fill="#FFF" d="M1325.7,567.9H231.9c-5.7,0-10.3-4.6-10.3-10.3v-45.2c0-5.7,4.6-10.3,10.3-10.3h1093.8 c5.7,0,10.3,4.6,10.3,10.3v45.2C1336,563.3,1331.4,567.9,1325.7,567.9z"/><rect width="285.1" height="34.1" x="238" y="518.5" fill="#03A0FF"/><path fill="#A7A9AC" d="M121.1,571.6H75.3c-5.5,0-10-4.5-10-10v-45.8c0-5.5,4.5-10,10-10h45.8c5.5,0,10,4.5,10,10v45.8 C131.1,567.1,126.6,571.6,121.1,571.6z"/><path fill="#FFF" d="M121.1,567.9H75.3c-5.5,0-10-4.5-10-10v-45.8c0-5.5,4.5-10,10-10h45.8c5.5,0,10,4.5,10,10v45.8 C131.1,563.4,126.6,567.9,121.1,567.9z"/><polygon fill="#A7A9AC" points="114.6 532.3 98.2 515.8 81.7 532.3 86.5 532.3 86.5 552.6 94.1 552.6 94.1 540.9 102.2 540.9 102.2 552.6 109.8 552.6 109.8 532.3"/><path fill="#A7A9AC" d="M200.1,571.6h-45.8c-5.5,0-10-4.5-10-10v-45.8c0-5.5,4.5-10,10-10h45.8c5.5,0,10,4.5,10,10v45.8 C210.1,567.1,205.6,571.6,200.1,571.6z"/><path fill="#FFF" d="M200.1,567.9h-45.8c-5.5,0-10-4.5-10-10v-45.8c0-5.5,4.5-10,10-10h45.8c5.5,0,10,4.5,10,10v45.8 C210.1,563.4,205.6,567.9,200.1,567.9z"/><polygon fill="#A7A9AC" points="188 552.6 177 543.3 166 552.6 166 515.8 188 515.8"/><g><circle cx="1309.3" cy="530.4" r="15.4" fill="none" stroke="#A7A9AC" stroke-miterlimit="10" stroke-width="3"/><line x1="1285.8" x2="1298.7" y1="555" y2="542.2" fill="none" stroke="#A7A9AC" stroke-miterlimit="10" stroke-width="3"/></g><g><path fill="#58595B" d="M252.3,534.5v11.2h-1.7v-11c0-2.1-1.1-3.8-3.6-3.8c-2.5,0-4.2,1.6-4.7,3.1v11.7h-1.7V523h1.7v8.4h0.1 c0.4-0.5,1.8-2.2,4.8-2.2C250.3,529.3,252.3,531.3,252.3,534.5z"/><path fill="#58595B" d="M258,541.6V531h-2.5v-1.1l2.5-0.4l0.5-4.3h1.3v4.3h4.5v1.5h-4.5v10.4c0,2,1,2.8,2.5,2.8 c1.5,0,2.2-0.3,2.5-0.5l0.5,1.5c-0.6,0.3-1.6,0.7-3.3,0.7C259.3,545.8,258,544.4,258,541.6z"/><path fill="#58595B" d="M269.2,541.6V531h-2.5v-1.1l2.5-0.4l0.5-4.3h1.3v4.3h4.5v1.5h-4.5v10.4c0,2,1,2.8,2.5,2.8 c1.5,0,2.2-0.3,2.5-0.5l0.5,1.5c-0.6,0.3-1.6,0.7-3.3,0.7C270.5,545.8,269.2,544.4,269.2,541.6z"/><path fill="#58595B" d="M284.2,545.7c-0.8,0-1.8-0.1-2.5-0.2v6h-1.7v-21.9h1.3l0.4,1.7h0.1c0.8-1.1,2.2-2,4.3-2c3.7,0,6,2.4,6,7.7 C292,542.5,289,545.7,284.2,545.7z M284.2,544c4.1,0,6-2.4,6-6.8c0-4.9-2.2-6.4-4.5-6.4c-2.2,0-3.5,1.4-4.1,2.5v10.3 C282.3,543.9,283.4,544,284.2,544z"/><path fill="#58595B" d="M295.8,533.6c0-2.2,1.9-4.3,5.4-4.3c1.6,0,3.4,0.6,4.4,1.6l-1.1,1.3c-0.8-0.8-2.2-1.3-3.3-1.3 c-2.5,0-3.6,1.3-3.6,2.7c0,4,8.3,2.3,8.3,7.8c0,2.2-1.9,4.5-5.6,4.5c-2.5,0-4.4-0.9-5.5-1.9l1.1-1.4c1,1,2.6,1.7,4.4,1.7 c2.5,0,3.7-1.3,3.7-2.9C304,537.4,295.8,539.1,295.8,533.6z"/><path fill="#58595B" d="M310.7,530.1c0.9,0,1.6,0.7,1.6,1.6c0,0.8-0.7,1.5-1.6,1.5c-0.8,0-1.5-0.7-1.5-1.5 C309.2,530.8,309.9,530.1,310.7,530.1z M310.7,542.2c0.9,0,1.6,0.7,1.6,1.6c0,0.8-0.7,1.5-1.6,1.5c-0.8,0-1.5-0.7-1.5-1.5 C309.2,542.9,309.9,542.2,310.7,542.2z"/><path fill="#58595B" d="M323.5,523.8l-8,25.6h-1.7l8-25.6H323.5z"/><path fill="#58595B" d="M333.2,523.8l-8,25.6h-1.7l8-25.6H333.2z"/><path fill="#58595B" d="M338.9,539.7c0.5,1.4,0.9,2.8,1.2,4.2h0.1c0.4-1.4,0.8-2.8,1.3-4.2l3.4-10.2h1.9l-5.6,16.1h-2.1l-5.6-16.1 h1.9L338.9,539.7z"/><path fill="#58595B" d="M360.6,544.5c-1,0.7-2.8,1.3-4.8,1.3c-4.5,0-6.9-2.2-6.9-8.3c0-6,3.3-8.2,6.6-8.2c3.7,0,5.7,2.5,5.7,6.2 c0,0.8-0.1,1.8-0.1,2.8h-10.4c0.2,4.4,2,5.9,5.4,5.9c1.6,0,3.1-0.6,3.8-1.2L360.6,544.5z M350.6,536.7h8.8c0-0.4,0-0.8,0-1.1 c0-3-1.3-4.7-4.1-4.7C353.1,530.9,350.8,532.2,350.6,536.7z"/><path fill="#58595B" d="M371.5,529.3c2.6,0,3.9,1,4.3,1.5l-1.2,1.4c-0.8-0.7-1.8-1.3-3.3-1.3c-2.8,0-4.7,1.9-4.7,6.7 c0,4.9,1.9,6.7,4.7,6.7c1.5,0,2.5-0.4,3.3-1.2l1,1.3c-0.6,0.6-1.9,1.5-4.5,1.5c-3.8,0-6.4-2.2-6.4-8 C364.8,531.9,367.7,529.3,371.5,529.3z"/><path fill="#58595B" d="M380.1,541.6V531h-2.5v-1.1l2.5-0.4l0.5-4.3h1.3v4.3h4.5v1.5h-4.5v10.4c0,2,1,2.8,2.5,2.8 c1.5,0,2.2-0.3,2.5-0.5l0.5,1.5c-0.6,0.3-1.6,0.7-3.3,0.7C381.4,545.8,380.1,544.4,380.1,541.6z"/><path fill="#58595B" d="M401.6,544.5c-1,0.7-2.8,1.3-4.8,1.3c-4.5,0-6.9-2.2-6.9-8.3c0-6,3.3-8.2,6.6-8.2c3.7,0,5.7,2.5,5.7,6.2 c0,0.8-0.1,1.8-0.1,2.8h-10.4c0.2,4.4,2,5.9,5.4,5.9c1.6,0,3.1-0.6,3.8-1.2L401.6,544.5z M391.6,536.7h8.8c0-0.4,0-0.8,0-1.1 c0-3-1.3-4.7-4.1-4.7C394.2,530.9,391.9,532.2,391.6,536.7z"/><path fill="#58595B" d="M417.6,544.5c-1,0.7-2.8,1.3-4.8,1.3c-4.5,0-6.9-2.2-6.9-8.3c0-6,3.3-8.2,6.6-8.2c3.7,0,5.7,2.5,5.7,6.2 c0,0.8-0.1,1.8-0.1,2.8h-10.4c0.2,4.4,2,5.9,5.4,5.9c1.6,0,3.1-0.6,3.8-1.2L417.6,544.5z M407.6,536.7h8.8c0-0.4,0-0.8,0-1.1 c0-3-1.3-4.7-4.1-4.7C410.1,530.9,407.9,532.2,407.6,536.7z"/><path fill="#58595B" d="M423,544h8.6v1.6h-10.2l-0.3-2l8.4-12.3v-0.1h-7.7v-1.6h9.1l0.4,2l-8.4,12.3V544z"/><path fill="#58595B" d="M433.8,550c0.4,0.1,1.1,0.2,1.5,0.2c2.1,0,3.3-1.1,4.1-3.9l-5.8-16.8h1.9l2.8,8.6c1,3.2,1.5,4.5,1.9,5.9 h0.1c0.3-1.1,0.6-2.3,1.8-5.9l2.8-8.6h1.8l-5.7,17.3c-1,3.1-2.6,5-5.8,5c-0.7,0-1.2-0.1-1.6-0.2L433.8,550z"/><path fill="#58595B" d="M450.4,542.5c0.9,0,1.6,0.7,1.6,1.6c0,0.8-0.7,1.5-1.6,1.5c-0.8,0-1.5-0.7-1.5-1.5 C448.8,543.2,449.5,542.5,450.4,542.5z"/><path fill="#58595B" d="M461.8,529.3c2.6,0,3.9,1,4.3,1.5l-1.2,1.4c-0.8-0.7-1.8-1.3-3.3-1.3c-2.8,0-4.7,1.9-4.7,6.7 c0,4.9,1.9,6.7,4.7,6.7c1.5,0,2.5-0.4,3.3-1.2l1,1.3c-0.6,0.6-1.9,1.5-4.5,1.5c-3.8,0-6.4-2.2-6.4-8 C455.2,531.9,458,529.3,461.8,529.3z"/><path fill="#58595B" d="M469,537.7c0-5,1.8-8.4,6.6-8.4c4.7,0,6.4,3.3,6.4,8.2c0,5-1.8,8.4-6.6,8.4 C470.7,545.9,469,542.6,469,537.7z M475.6,544.3c3.3,0,4.6-2.2,4.6-6.6c0-4.6-1.4-6.8-4.8-6.8c-3.3,0-4.6,2.2-4.6,6.6 C470.8,542,472.2,544.3,475.6,544.3z"/><path fill="#58595B" d="M501.4,529.3c3.2,0,5,1.9,5,5.3v11.1h-1.7V535c0-2.7-1.2-4.1-3.5-4.1s-3.6,1.6-4,2.9v11.9h-1.7v-10.6 c0-2.7-1.2-4.2-3.5-4.2c-2.3,0-3.6,1.6-4,3.1v11.7h-1.7v-16.1h1.3l0.4,1.8h0.1c0.3-0.5,1.4-2.1,4.2-2.1c2.4,0,3.7,1.1,4.3,2.7h0.1 C497.3,530.5,498.8,529.3,501.4,529.3z"/><path fill="#58595B" d="M518.6,523.8l-8,25.6h-1.7l8-25.6H518.6z"/></g></g><g><path d="M1358,905.7H42c-5.5,0-10-4.5-10-10v-98c0-5.5,4.5-10,10-10h1316c5.5,0,10,4.5,10,10v98 C1368,901.2,1363.5,905.7,1358,905.7z" opacity=".3"/><path fill="#D1D3D4" d="M1358,900H42c-5.5,0-10-4.5-10-10v-98c0-5.5,4.5-10,10-10h1316c5.5,0,10,4.5,10,10v98 C1368,895.5,1363.5,900,1358,900z"/><path fill="#A7A9AC" d="M1239,877.6h-45.8c-5.5,0-10-4.5-10-10v-45.8c0-5.5,4.5-10,10-10h45.8c5.5,0,10,4.5,10,10v45.8 C1249,873.1,1244.5,877.6,1239,877.6z"/><path fill="#FFF" d="M1239,873.9h-45.8c-5.5,0-10-4.5-10-10v-45.8c0-5.5,4.5-10,10-10h45.8c5.5,0,10,4.5,10,10v45.8 C1249,869.4,1244.5,873.9,1239,873.9z"/><path fill="#FFF" d="M1158.4,964.2H173.2c-5.8,0-10.6-4.7-10.6-10.6v-91.4c0-5.8,4.7-10.6,10.6-10.6h985.2 c5.8,0,10.6,4.7,10.6,10.6v91.4C1169,959.4,1164.3,964.2,1158.4,964.2z"/><path fill="#A7A9AC" d="M1159.2,877.6H172.4c-5.4,0-9.8-4.4-9.8-9.8v-46.3c0-5.4,4.4-9.8,9.8-9.8h986.9c5.4,0,9.8,4.4,9.8,9.8v46.3 C1169,873.2,1164.6,877.6,1159.2,877.6z"/><path fill="#FFF" d="M1159.2,873.9H172.4c-5.4,0-9.8-4.4-9.8-9.8v-46.3c0-5.4,4.4-9.8,9.8-9.8h986.9c5.4,0,9.8,4.4,9.8,9.8v46.3 C1169,869.5,1164.6,873.9,1159.2,873.9z"/><g><path fill="#58595B" d="M193.3,840.5v11.2h-1.7v-11c0-2.1-1.1-3.8-3.6-3.8c-2.5,0-4.2,1.6-4.7,3.1v11.7h-1.7V829h1.7v8.4h0.1 c0.4-0.5,1.8-2.2,4.8-2.2C191.3,835.3,193.3,837.3,193.3,840.5z"/><path fill="#58595B" d="M198.9,847.6V837h-2.5v-1.1l2.5-0.4l0.5-4.3h1.3v4.3h4.5v1.5h-4.5v10.4c0,2,1,2.8,2.5,2.8 c1.5,0,2.2-0.3,2.5-0.5l0.5,1.5c-0.6,0.3-1.6,0.7-3.3,0.7C200.3,851.8,198.9,850.4,198.9,847.6z"/><path fill="#58595B" d="M210.2,847.6V837h-2.5v-1.1l2.5-0.4l0.5-4.3h1.3v4.3h4.5v1.5h-4.5v10.4c0,2,1,2.8,2.5,2.8 c1.5,0,2.2-0.3,2.5-0.5l0.5,1.5c-0.6,0.3-1.6,0.7-3.3,0.7C211.5,851.8,210.2,850.4,210.2,847.6z"/><path fill="#58595B" d="M225.1,851.7c-0.8,0-1.8-0.1-2.5-0.2v6h-1.7v-21.9h1.3l0.4,1.7h0.1c0.8-1.1,2.2-2,4.3-2c3.7,0,6,2.4,6,7.7 C232.9,848.5,229.9,851.7,225.1,851.7z M225.1,850c4.1,0,6-2.4,6-6.8c0-4.9-2.2-6.4-4.5-6.4c-2.2,0-3.5,1.4-4.1,2.5v10.3 C223.2,849.9,224.4,850,225.1,850z"/><path fill="#58595B" d="M236.7,839.6c0-2.2,1.9-4.3,5.4-4.3c1.6,0,3.4,0.6,4.4,1.6l-1.1,1.3c-0.8-0.8-2.2-1.3-3.3-1.3 c-2.5,0-3.6,1.3-3.6,2.7c0,4,8.3,2.3,8.3,7.8c0,2.2-1.9,4.5-5.6,4.5c-2.5,0-4.4-0.9-5.5-1.9l1.1-1.4c1,1,2.6,1.7,4.4,1.7 c2.5,0,3.7-1.3,3.7-2.9C245,843.4,236.7,845.1,236.7,839.6z"/><path fill="#58595B" d="M251.6,836.1c0.9,0,1.6,0.7,1.6,1.6c0,0.8-0.7,1.5-1.6,1.5c-0.8,0-1.5-0.7-1.5-1.5 C250.1,836.8,250.8,836.1,251.6,836.1z M251.6,848.2c0.9,0,1.6,0.7,1.6,1.6c0,0.8-0.7,1.5-1.6,1.5c-0.8,0-1.5-0.7-1.5-1.5 C250.1,848.9,250.8,848.2,251.6,848.2z"/><path fill="#58595B" d="M264.4,829.8l-8,25.6h-1.7l8-25.6H264.4z"/><path fill="#58595B" d="M274.2,829.8l-8,25.6h-1.7l8-25.6H274.2z"/></g><g><path fill="#58595B" d="M193.3,900.5v11.2h-1.7v-11c0-2.1-1.1-3.8-3.6-3.8c-2.5,0-4.2,1.6-4.7,3.1v11.7h-1.7V889h1.7v8.4h0.1 c0.4-0.5,1.8-2.2,4.8-2.2C191.3,895.3,193.3,897.3,193.3,900.5z"/><path fill="#58595B" d="M198.9,907.6V897h-2.5v-1.1l2.5-0.4l0.5-4.3h1.3v4.3h4.5v1.5h-4.5v10.4c0,2,1,2.8,2.5,2.8 c1.5,0,2.2-0.3,2.5-0.5l0.5,1.5c-0.6,0.3-1.6,0.7-3.3,0.7C200.3,911.8,198.9,910.4,198.9,907.6z"/><path fill="#58595B" d="M210.2,907.6V897h-2.5v-1.1l2.5-0.4l0.5-4.3h1.3v4.3h4.5v1.5h-4.5v10.4c0,2,1,2.8,2.5,2.8 c1.5,0,2.2-0.3,2.5-0.5l0.5,1.5c-0.6,0.3-1.6,0.7-3.3,0.7C211.5,911.8,210.2,910.4,210.2,907.6z"/><path fill="#58595B" d="M225.1,911.7c-0.8,0-1.8-0.1-2.5-0.2v6h-1.7v-21.9h1.3l0.4,1.7h0.1c0.8-1.1,2.2-2,4.3-2c3.7,0,6,2.4,6,7.7 C232.9,908.5,229.9,911.7,225.1,911.7z M225.1,910c4.1,0,6-2.4,6-6.8c0-4.9-2.2-6.4-4.5-6.4c-2.2,0-3.5,1.4-4.1,2.5v10.3 C223.2,909.9,224.4,910,225.1,910z"/><path fill="#58595B" d="M236.7,899.6c0-2.2,1.9-4.3,5.4-4.3c1.6,0,3.4,0.6,4.4,1.6l-1.1,1.3c-0.8-0.8-2.2-1.3-3.3-1.3 c-2.5,0-3.6,1.3-3.6,2.7c0,4,8.3,2.3,8.3,7.8c0,2.2-1.9,4.5-5.6,4.5c-2.5,0-4.4-0.9-5.5-1.9l1.1-1.4c1,1,2.6,1.7,4.4,1.7 c2.5,0,3.7-1.3,3.7-2.9C245,903.4,236.7,905.1,236.7,899.6z"/><path fill="#58595B" d="M251.6,896.1c0.9,0,1.6,0.7,1.6,1.6c0,0.8-0.7,1.5-1.6,1.5c-0.8,0-1.5-0.7-1.5-1.5 C250.1,896.8,250.8,896.1,251.6,896.1z M251.6,908.2c0.9,0,1.6,0.7,1.6,1.6c0,0.8-0.7,1.5-1.6,1.5c-0.8,0-1.5-0.7-1.5-1.5 C250.1,908.9,250.8,908.2,251.6,908.2z"/><path fill="#58595B" d="M264.4,889.8l-8,25.6h-1.7l8-25.6H264.4z"/><path fill="#58595B" d="M274.2,889.8l-8,25.6h-1.7l8-25.6H274.2z"/><path fill="#58595B" d="M285.1,897.1l-3.7,14.6h-2.6l-4.3-16.1h1.8l2.4,9.3c0.4,1.7,0.9,3.5,1.3,5.2h0.1c0.4-1.5,0.7-3,1.1-4.5 l2.5-10.1h2.7l2.5,10.1c0.4,1.4,0.7,2.8,1.1,4.4h0.1c0.4-1.8,0.9-3.6,1.3-5.2l2.4-9.3h1.8l-4.3,16.1h-2.6l-3.6-14.6H285.1z"/><path fill="#58595B" d="M307.2,897.1l-3.7,14.6h-2.6l-4.3-16.1h1.8l2.4,9.3c0.4,1.7,0.9,3.5,1.3,5.2h0.1c0.4-1.5,0.7-3,1.1-4.5 l2.5-10.1h2.7l2.5,10.1c0.4,1.4,0.7,2.8,1.1,4.4h0.1c0.4-1.8,0.9-3.6,1.3-5.2l2.4-9.3h1.8l-4.3,16.1h-2.6l-3.6-14.6H307.2z"/><path fill="#58595B" d="M329.2,897.1l-3.7,14.6h-2.6l-4.3-16.1h1.8l2.4,9.3c0.4,1.7,0.9,3.5,1.3,5.2h0.1c0.4-1.5,0.7-3,1.1-4.5 l2.5-10.1h2.7l2.5,10.1c0.4,1.4,0.7,2.8,1.1,4.4h0.1c0.4-1.8,0.9-3.6,1.3-5.2l2.4-9.3h1.8l-4.3,16.1h-2.6l-3.6-14.6H329.2z"/><path fill="#58595B" d="M343.3,908.5c0.9,0,1.6,0.7,1.6,1.6c0,0.8-0.7,1.5-1.6,1.5c-0.8,0-1.5-0.7-1.5-1.5 C341.7,909.2,342.4,908.5,343.3,908.5z"/><path fill="#58595B" d="M347.3,916c0.4,0.1,1.1,0.2,1.5,0.2c2.1,0,3.3-1.1,4.1-3.9l-5.8-16.8h1.9l2.8,8.6c1,3.2,1.5,4.5,1.9,5.9 h0.1c0.3-1.1,0.6-2.3,1.8-5.9l2.8-8.6h1.8l-5.7,17.3c-1,3.1-2.6,5-5.8,5c-0.7,0-1.2-0.1-1.6-0.2L347.3,916z"/><path fill="#58595B" d="M362.3,903.7c0-5,1.8-8.4,6.6-8.4c4.7,0,6.4,3.3,6.4,8.2c0,5-1.8,8.4-6.6,8.4 C364,911.9,362.3,908.6,362.3,903.7z M368.9,910.3c3.3,0,4.6-2.2,4.6-6.6c0-4.6-1.4-6.8-4.8-6.8c-3.3,0-4.6,2.2-4.6,6.6 C364.1,908,365.5,910.3,368.9,910.3z"/><path fill="#58595B" d="M379.5,895.6h1.7v10.6c0,2.9,1.2,4.2,3.9,4.2c2.4,0,4.4-1.3,4.4-4.4v-10.4h1.7v16.1H390l-0.4-1.7h-0.1 c-0.3,0.5-1.8,2.1-4.7,2.1c-3.3,0-5.2-1.7-5.3-5.4V895.6z"/><path fill="#58595B" d="M397,907.6V897h-2.5v-1.1l2.5-0.4l0.5-4.3h1.3v4.3h4.5v1.5h-4.5v10.4c0,2,1,2.8,2.5,2.8 c1.5,0,2.2-0.3,2.5-0.5l0.5,1.5c-0.6,0.3-1.6,0.7-3.3,0.7C398.3,911.8,397,910.4,397,907.6z"/><path fill="#58595B" d="M407.6,895.6h1.7v10.6c0,2.9,1.2,4.2,3.9,4.2c2.4,0,4.4-1.3,4.4-4.4v-10.4h1.7v16.1h-1.3l-0.4-1.7h-0.1 c-0.3,0.5-1.8,2.1-4.7,2.1c-3.3,0-5.2-1.7-5.3-5.4V895.6z"/><path fill="#58595B" d="M424.5,889h1.7v7.8h0.1c0.5-0.4,1.9-1.3,4.1-1.3c3.3,0,6.1,2.2,6.1,7.6c0,5.3-2.5,8.9-7.8,8.9 c-1.8,0-3.3-0.4-4.2-0.8V889z M434.8,903.4c0-5-2.4-6.4-4.8-6.4c-1.4,0-2.9,0.7-3.7,1.8v11c0.7,0.3,1.7,0.5,2.9,0.5 C432.5,910.3,434.8,908,434.8,903.4z"/><path fill="#58595B" d="M451.8,910.5c-1,0.7-2.8,1.3-4.8,1.3c-4.5,0-6.9-2.2-6.9-8.3c0-6,3.3-8.2,6.6-8.2c3.7,0,5.7,2.5,5.7,6.2 c0,0.8-0.1,1.8-0.1,2.8h-10.4c0.2,4.4,2,5.9,5.4,5.9c1.6,0,3.1-0.6,3.8-1.2L451.8,910.5z M441.8,902.7h8.8c0-0.4,0-0.8,0-1.1 c0-3-1.3-4.7-4.1-4.7C444.3,896.9,442.1,898.2,441.8,902.7z"/><path fill="#58595B" d="M457.3,908.5c0.9,0,1.6,0.7,1.6,1.6c0,0.8-0.7,1.5-1.6,1.5c-0.8,0-1.5-0.7-1.5-1.5 C455.8,909.2,456.5,908.5,457.3,908.5z"/><path fill="#58595B" d="M468.8,895.3c2.6,0,3.9,1,4.3,1.5l-1.2,1.4c-0.8-0.7-1.8-1.3-3.3-1.3c-2.8,0-4.7,1.9-4.7,6.7 c0,4.9,1.9,6.7,4.7,6.7c1.5,0,2.5-0.4,3.3-1.2l1,1.3c-0.6,0.6-1.9,1.5-4.5,1.5c-3.8,0-6.4-2.2-6.4-8 C462.1,897.9,465,895.3,468.8,895.3z"/><path fill="#58595B" d="M476,903.7c0-5,1.8-8.4,6.6-8.4c4.7,0,6.4,3.3,6.4,8.2c0,5-1.8,8.4-6.6,8.4 C477.7,911.9,476,908.6,476,903.7z M482.6,910.3c3.3,0,4.6-2.2,4.6-6.6c0-4.6-1.4-6.8-4.8-6.8c-3.3,0-4.6,2.2-4.6,6.6 C477.8,908,479.2,910.3,482.6,910.3z"/><path fill="#58595B" d="M508.4,895.3c3.2,0,5,1.9,5,5.3v11.1h-1.7V901c0-2.7-1.2-4.1-3.5-4.1s-3.6,1.6-4,2.9v11.9h-1.7v-10.6 c0-2.7-1.2-4.2-3.5-4.2c-2.3,0-3.6,1.6-4,3.1v11.7h-1.7v-16.1h1.3l0.4,1.8h0.1c0.3-0.5,1.4-2.1,4.2-2.1c2.4,0,3.7,1.1,4.3,2.7h0.1 C504.3,896.5,505.8,895.3,508.4,895.3z"/><path fill="#58595B" d="M525.6,889.8l-8,25.6h-1.7l8-25.6H525.6z"/></g><g><path fill="#58595B" d="M193.3,941.5v11.2h-1.7v-11c0-2.1-1.1-3.8-3.6-3.8c-2.5,0-4.2,1.6-4.7,3.1v11.7h-1.7V930h1.7v8.4h0.1 c0.4-0.5,1.8-2.2,4.8-2.2C191.3,936.3,193.3,938.3,193.3,941.5z"/><path fill="#58595B" d="M198.9,948.6V938h-2.5v-1.1l2.5-0.4l0.5-4.3h1.3v4.3h4.5v1.5h-4.5v10.4c0,2,1,2.8,2.5,2.8 c1.5,0,2.2-0.3,2.5-0.5l0.5,1.5c-0.6,0.3-1.6,0.7-3.3,0.7C200.3,952.8,198.9,951.4,198.9,948.6z"/><path fill="#58595B" d="M210.2,948.6V938h-2.5v-1.1l2.5-0.4l0.5-4.3h1.3v4.3h4.5v1.5h-4.5v10.4c0,2,1,2.8,2.5,2.8 c1.5,0,2.2-0.3,2.5-0.5l0.5,1.5c-0.6,0.3-1.6,0.7-3.3,0.7C211.5,952.8,210.2,951.4,210.2,948.6z"/><path fill="#58595B" d="M225.1,952.7c-0.8,0-1.8-0.1-2.5-0.2v6h-1.7v-21.9h1.3l0.4,1.7h0.1c0.8-1.1,2.2-2,4.3-2c3.7,0,6,2.4,6,7.7 C232.9,949.5,229.9,952.7,225.1,952.7z M225.1,951c4.1,0,6-2.4,6-6.8c0-4.9-2.2-6.4-4.5-6.4c-2.2,0-3.5,1.4-4.1,2.5v10.3 C223.2,950.9,224.4,951,225.1,951z"/><path fill="#58595B" d="M236.7,940.6c0-2.2,1.9-4.3,5.4-4.3c1.6,0,3.4,0.6,4.4,1.6l-1.1,1.3c-0.8-0.8-2.2-1.3-3.3-1.3 c-2.5,0-3.6,1.3-3.6,2.7c0,4,8.3,2.3,8.3,7.8c0,2.2-1.9,4.5-5.6,4.5c-2.5,0-4.4-0.9-5.5-1.9l1.1-1.4c1,1,2.6,1.7,4.4,1.7 c2.5,0,3.7-1.3,3.7-2.9C245,944.4,236.7,946.1,236.7,940.6z"/><path fill="#58595B" d="M251.6,937.1c0.9,0,1.6,0.7,1.6,1.6c0,0.8-0.7,1.5-1.6,1.5c-0.8,0-1.5-0.7-1.5-1.5 C250.1,937.8,250.8,937.1,251.6,937.1z M251.6,949.2c0.9,0,1.6,0.7,1.6,1.6c0,0.8-0.7,1.5-1.6,1.5c-0.8,0-1.5-0.7-1.5-1.5 C250.1,949.9,250.8,949.2,251.6,949.2z"/><path fill="#58595B" d="M264.4,930.8l-8,25.6h-1.7l8-25.6H264.4z"/><path fill="#58595B" d="M274.2,930.8l-8,25.6h-1.7l8-25.6H274.2z"/><path fill="#58595B" d="M285.1,938.1l-3.7,14.6h-2.6l-4.3-16.1h1.8l2.4,9.3c0.4,1.7,0.9,3.5,1.3,5.2h0.1c0.4-1.5,0.7-3,1.1-4.5 l2.5-10.1h2.7l2.5,10.1c0.4,1.4,0.7,2.8,1.1,4.4h0.1c0.4-1.8,0.9-3.6,1.3-5.2l2.4-9.3h1.8l-4.3,16.1h-2.6l-3.6-14.6H285.1z"/><path fill="#58595B" d="M307.2,938.1l-3.7,14.6h-2.6l-4.3-16.1h1.8l2.4,9.3c0.4,1.7,0.9,3.5,1.3,5.2h0.1c0.4-1.5,0.7-3,1.1-4.5 l2.5-10.1h2.7l2.5,10.1c0.4,1.4,0.7,2.8,1.1,4.4h0.1c0.4-1.8,0.9-3.6,1.3-5.2l2.4-9.3h1.8l-4.3,16.1h-2.6l-3.6-14.6H307.2z"/><path fill="#58595B" d="M329.2,938.1l-3.7,14.6h-2.6l-4.3-16.1h1.8l2.4,9.3c0.4,1.7,0.9,3.5,1.3,5.2h0.1c0.4-1.5,0.7-3,1.1-4.5 l2.5-10.1h2.7l2.5,10.1c0.4,1.4,0.7,2.8,1.1,4.4h0.1c0.4-1.8,0.9-3.6,1.3-5.2l2.4-9.3h1.8l-4.3,16.1h-2.6l-3.6-14.6H329.2z"/><path fill="#58595B" d="M343.3,949.5c0.9,0,1.6,0.7,1.6,1.6c0,0.8-0.7,1.5-1.6,1.5c-0.8,0-1.5-0.7-1.5-1.5 C341.7,950.2,342.4,949.5,343.3,949.5z"/><path fill="#58595B" d="M359.8,951.5c-1,0.7-2.8,1.3-4.8,1.3c-4.5,0-6.9-2.2-6.9-8.3c0-6,3.3-8.2,6.6-8.2c3.7,0,5.7,2.5,5.7,6.2 c0,0.8-0.1,1.8-0.1,2.8h-10.4c0.2,4.4,2,5.9,5.4,5.9c1.6,0,3.1-0.6,3.8-1.2L359.8,951.5z M349.8,943.7h8.8c0-0.4,0-0.8,0-1.1 c0-3-1.3-4.7-4.1-4.7C352.3,937.9,350.1,939.2,349.8,943.7z"/><path fill="#58595B" d="M375.8,951.5c-1,0.7-2.8,1.3-4.8,1.3c-4.5,0-6.9-2.2-6.9-8.3c0-6,3.3-8.2,6.6-8.2c3.7,0,5.7,2.5,5.7,6.2 c0,0.8-0.1,1.8-0.1,2.8h-10.4c0.2,4.4,2,5.9,5.4,5.9c1.6,0,3.1-0.6,3.8-1.2L375.8,951.5z M365.8,943.7h8.8c0-0.4,0-0.8,0-1.1 c0-3-1.3-4.7-4.1-4.7C368.3,937.9,366.1,939.2,365.8,943.7z"/><path fill="#58595B" d="M381.2,951h8.6v1.6h-10.2l-0.3-2l8.4-12.3v-0.1h-7.7v-1.6h9.1l0.4,2l-8.4,12.3V951z"/><path fill="#58595B" d="M392,957c0.4,0.1,1.1,0.2,1.5,0.2c2.1,0,3.3-1.1,4.1-3.9l-5.8-16.8h1.9l2.8,8.6c1,3.2,1.5,4.5,1.9,5.9h0.1 c0.3-1.1,0.6-2.3,1.8-5.9l2.8-8.6h1.8l-5.7,17.3c-1,3.1-2.6,5-5.8,5c-0.7,0-1.2-0.1-1.6-0.2L392,957z"/><path fill="#58595B" d="M408.5,949.5c0.9,0,1.6,0.7,1.6,1.6c0,0.8-0.7,1.5-1.6,1.5c-0.8,0-1.5-0.7-1.5-1.5 C407,950.2,407.7,949.5,408.5,949.5z"/><path fill="#58595B" d="M420,936.3c2.6,0,3.9,1,4.3,1.5l-1.2,1.4c-0.8-0.7-1.8-1.3-3.3-1.3c-2.8,0-4.7,1.9-4.7,6.7 c0,4.9,1.9,6.7,4.7,6.7c1.5,0,2.5-0.4,3.3-1.2l1,1.3c-0.6,0.6-1.9,1.5-4.5,1.5c-3.8,0-6.4-2.2-6.4-8 C413.4,938.9,416.2,936.3,420,936.3z"/><path fill="#58595B" d="M427.2,944.7c0-5,1.8-8.4,6.6-8.4c4.7,0,6.4,3.3,6.4,8.2c0,5-1.8,8.4-6.6,8.4 C428.9,952.9,427.2,949.6,427.2,944.7z M433.8,951.3c3.3,0,4.6-2.2,4.6-6.6c0-4.6-1.4-6.8-4.8-6.8c-3.3,0-4.6,2.2-4.6,6.6 C429,949,430.4,951.3,433.8,951.3z"/><path fill="#58595B" d="M459.6,936.3c3.2,0,5,1.9,5,5.3v11.1h-1.7V942c0-2.7-1.2-4.1-3.5-4.1s-3.6,1.6-4,2.9v11.9h-1.7v-10.6 c0-2.7-1.2-4.2-3.5-4.2c-2.3,0-3.6,1.6-4,3.1v11.7h-1.7v-16.1h1.3l0.4,1.8h0.1c0.3-0.5,1.4-2.1,4.2-2.1c2.4,0,3.7,1.1,4.3,2.7h0.1 C455.5,937.5,457,936.3,459.6,936.3z"/><path fill="#58595B" d="M476.8,930.8l-8,25.6h-1.7l8-25.6H476.8z"/></g><polyline fill="none" stroke="#A7A9AC" stroke-miterlimit="10" stroke-width="3" points="1153.7 832.7 1136.3 850.5 1118.9 832.7"/><g><g><line x1="1196" x2="1232.8" y1="841.6" y2="841.6" fill="none" stroke="#A7A9AC" stroke-miterlimit="10" stroke-width="3"/><g><polygon fill="#A7A9AC" points="1222.8 853.9 1220.8 851.7 1231.6 841.6 1220.8 831.6 1222.8 829.4 1236 841.6"/></g></g></g><path fill="#A7A9AC" d="M138.1,877.6H92.3c-5.5,0-10-4.5-10-10v-45.8c0-5.5,4.5-10,10-10h45.8c5.5,0,10,4.5,10,10v45.8 C148.1,873.1,143.6,877.6,138.1,877.6z"/><path fill="#FFF" d="M138.1,873.9H92.3c-5.5,0-10-4.5-10-10v-45.8c0-5.5,4.5-10,10-10h45.8c5.5,0,10,4.5,10,10v45.8 C148.1,869.4,143.6,873.9,138.1,873.9z"/><g><g><line x1="135.1" x2="98.4" y1="841.6" y2="841.6" fill="none" stroke="#A7A9AC" stroke-miterlimit="10" stroke-width="3"/><g><polygon fill="#A7A9AC" points="108.3 829.4 110.4 831.5 99.5 841.6 110.4 851.7 108.3 853.9 95.1 841.6"/></g></g></g><path fill="#A7A9AC" d="M1315.7,877.6h-45.8c-5.5,0-10-4.5-10-10v-45.8c0-5.5,4.5-10,10-10h45.8c5.5,0,10,4.5,10,10v45.8 C1325.7,873.1,1321.2,877.6,1315.7,877.6z"/><path fill="#FFF" d="M1315.7,873.9h-45.8c-5.5,0-10-4.5-10-10v-45.8c0-5.5,4.5-10,10-10h45.8c5.5,0,10,4.5,10,10v45.8 C1325.7,869.4,1321.2,873.9,1315.7,873.9z"/><g><line x1="1273.6" x2="1311.9" y1="821.8" y2="860.2" fill="none" stroke="#A7A9AC" stroke-miterlimit="10" stroke-width="3"/><line x1="1311.9" x2="1273.6" y1="821.8" y2="860.2" fill="none" stroke="#A7A9AC" stroke-miterlimit="10" stroke-width="3"/></g></g></svg>